<?xml version="1.0" encoding="utf-8"?>
<!-- Svg Vector Icons : http://www.onlinewebfonts.com/icon -->
<!DOCTYPE svg PUBLIC "-//W3C//DTD SVG 1.1//EN" "http://www.w3.org/Graphics/SVG/1.1/DTD/svg11.dtd">
<svg version="1.1" xmlns="http://www.w3.org/2000/svg" xmlns:xlink="http://www.w3.org/1999/xlink" x="0px" y="0px" viewBox="0 0 1000 1000" enable-background="new 0 0 1000 1000" xml:space="preserve">
<metadata> Svg Vector Icons : http://www.onlinewebfonts.com/icon </metadata>
<g><g><path fill="#ffffff" d="M683.8,193.8c21.2,0,41.7-0.3,61.3-0.3C744.9,92.1,662.7,10,561.4,10H193.6C92.2,10,10,92.2,10,193.6v367.9C10,662.8,92.2,745,193.6,745h0.2V622.5h-0.2c-33.3,0-61.1-27.3-61.1-61.1V193.6c0-33.3,27.3-61.1,61.1-61.1h367.9c33.3,0,61.1,27.3,61.1,61.1v0.2H683.8z"/><path fill="#ffffff" d="M806.4,255H438.6C337.2,255,255,337.2,255,438.6v367.9C255,907.8,337.2,990,438.6,990h367.9C907.8,990,990,907.8,990,806.4V438.6C990,337.2,907.8,255,806.4,255z M867.5,806.4c0,33.3-27.3,61.1-61.1,61.1H438.6c-33.3,0-61.1-27.3-61.1-61.1V438.6c0-33.3,27.3-61.1,61.1-61.1h367.9c33.3,0,61.1,27.3,61.1,61.1V806.4z"/></g><g></g><g></g><g></g><g></g><g></g><g></g><g></g><g></g><g></g><g></g><g></g><g></g><g></g><g></g><g></g></g>
</svg>